<svg width="28" height="44" viewBox="0 0 28 44" fill="none" xmlns="http://www.w3.org/2000/svg">
<path d="M8.7487 26.1663C11.7402 26.1663 14.1654 23.7412 14.1654 20.7497C14.1654 17.7581 11.7402 15.333 8.7487 15.333C5.75716 15.333 3.33203 17.7581 3.33203 20.7497C3.33203 23.7412 5.75716 26.1663 8.7487 26.1663Z" stroke="#111111" stroke-width="1.25" stroke-miterlimit="10"/>
<path d="M16.2247 29.1086C16.4688 29.3527 16.8645 29.3527 17.1086 29.1086C17.3527 28.8645 17.3527 28.4688 17.1086 28.2247L16.2247 29.1086ZM12.5 24.5L12.0581 24.9419L16.2247 29.1086L16.6667 28.6667L17.1086 28.2247L12.9419 24.0581L12.5 24.5Z" fill="#111111"/>
<path d="M8.7487 26.1663C11.7402 26.1663 14.1654 23.7412 14.1654 20.7497C14.1654 17.7581 11.7402 15.333 8.7487 15.333C5.75716 15.333 3.33203 17.7581 3.33203 20.7497C3.33203 23.7412 5.75716 26.1663 8.7487 26.1663Z" stroke="#111111" stroke-width="1.25" stroke-miterlimit="10"/>
<path d="M16.2247 29.1086C16.4688 29.3527 16.8645 29.3527 17.1086 29.1086C17.3527 28.8645 17.3527 28.4688 17.1086 28.2247L16.2247 29.1086ZM12.5 24.5L12.0581 24.9419L16.2247 29.1086L16.6667 28.6667L17.1086 28.2247L12.9419 24.0581L12.5 24.5Z" fill="#111111"/>
</svg>
